<?xml version="1.0" standalone="no"?>
<!DOCTYPE svg PUBLIC "-//W3C//DTD SVG 20010904//EN"
 "http://www.w3.org/TR/2001/REC-SVG-20010904/DTD/svg10.dtd">
<svg version="1.0" xmlns="http://www.w3.org/2000/svg"
 width="250.000000pt" height="250.000000pt" viewBox="0 0 250.000000 250.000000"
 preserveAspectRatio="xMidYMid meet">
<metadata>
Created by potrace 1.11, written by Peter Selinger 2001-2013
</metadata>
<g transform="translate(0.000000,250.000000) scale(0.100000,-0.100000)"
fill="#000000" stroke="none">
<path d="M289 2498 c-3 -5 -14 -163 -24 -348 -3 -47 -7 -272 -10 -500 -4 -382
-3 -423 15 -520 78 -415 307 -729 726 -991 51 -33 130 -78 174 -100 l80 -40
78 39 c521 264 829 643 907 1117 12 73 13 168 10 500 -3 226 -7 441 -9 478 -2
37 -7 127 -11 200 -5 73 -8 140 -9 150 0 16 -53 17 -963 17 -530 0 -964 -1
-964 -2z"/>
</g>
</svg>
